<svg xmlns="http://www.w3.org/2000/svg" viewBox="0 0 200 150" width="200" height="150" role="img" aria-label="Cinderlight Wellspring"><defs><linearGradient id="sky-rtg-well-wr" x1="0" y1="0" x2="0" y2="1"><stop offset="0%" stop-color="#fdf6e3"/><stop offset="100%" stop-color="#f3d89b"/></linearGradient></defs><rect width="200" height="150" fill="url(#sky-rtg-well-wr)"/><circle cx="163" cy="48" r="14" fill="#fffbe8" opacity="0.9"/><polygon points="0,150 0,82.5 29,51 57,78 86,52 114,78 143,59 171,82 200,58 200,150" fill="#b64a22"/><polygon points="0,150 0,103.50000000000001 29,97 57,85 86,95 114,89 143,86 171,100 200,82 200,150" fill="#8a3216"/><polygon points="0,150 0,124.50000000000001 29,110 57,112 86,117 114,116 143,114 171,116 200,122 200,150" fill="#541c0c"/></svg>
