<svg xmlns="http://www.w3.org/2000/svg" viewBox="0 0 200 150" width="200" height="150" role="img" aria-label="Steamvent Wellspring"><defs><linearGradient id="sky-rtg-well-ur" x1="0" y1="0" x2="0" y2="1"><stop offset="0%" stop-color="#dff3f7"/><stop offset="100%" stop-color="#7fb8cf"/></linearGradient></defs><rect width="200" height="150" fill="url(#sky-rtg-well-ur)"/><circle cx="78" cy="47" r="17" fill="#eafaff" opacity="0.9"/><polygon points="0,150 0,82.5 29,61 57,60 86,63 114,52 143,63 171,51 200,55 200,150" fill="#b64a22"/><polygon points="0,150 0,103.50000000000001 29,79 57,86 86,99 114,99 143,103 171,97 200,98 200,150" fill="#8a3216"/><polygon points="0,150 0,124.50000000000001 29,114 57,124 86,111 114,109 143,110 171,113 200,120 200,150" fill="#541c0c"/></svg>
