<svg xmlns="http://www.w3.org/2000/svg" viewBox="0 0 200 150" width="200" height="150" role="img" aria-label="Ashfall Raider"><defs><linearGradient id="sky-rtg-r-003" x1="0" y1="0" x2="0" y2="1"><stop offset="0%" stop-color="#ffe0c2"/><stop offset="100%" stop-color="#e07a3c"/></linearGradient></defs><rect width="200" height="150" fill="url(#sky-rtg-r-003)"/><circle cx="149" cy="48" r="19" fill="#fff2d8" opacity="0.9"/><polygon points="0,150 0,82.5 29,72 57,60 86,68 114,51 143,80 171,80 200,52 200,150" fill="#b64a22"/><polygon points="0,150 0,103.50000000000001 29,92 57,83 86,100 114,98 143,89 171,99 200,85 200,150" fill="#8a3216"/><polygon points="0,150 0,124.50000000000001 29,119 57,109 86,116 114,113 143,113 171,115 200,109 200,150" fill="#541c0c"/><path d="M91 125 Q96 108 101 123 M99 125 Q104 106 109 122" stroke="#fff2d8" fill="none" stroke-width="2.5" stroke-linecap="round"/></svg>
