<svg xmlns="http://www.w3.org/2000/svg" viewBox="0 0 200 150" width="200" height="150" role="img" aria-label="Clearwater Wellspring"><defs><linearGradient id="sky-rtg-well-wu" x1="0" y1="0" x2="0" y2="1"><stop offset="0%" stop-color="#fdf6e3"/><stop offset="100%" stop-color="#f3d89b"/></linearGradient></defs><rect width="200" height="150" fill="url(#sky-rtg-well-wu)"/><circle cx="45" cy="42" r="17" fill="#fffbe8" opacity="0.9"/><polygon points="0,150 0,82.5 29,51 57,54 86,52 114,64 143,57 171,69 200,69 200,150" fill="#3d7f9c"/><polygon points="0,150 0,103.50000000000001 29,96 57,91 86,88 114,79 143,89 171,83 200,79 200,150" fill="#2a5f79"/><polygon points="0,150 0,124.50000000000001 29,122 57,114 86,117 114,115 143,112 171,115 200,112 200,150" fill="#1a3f54"/></svg>
