<svg xmlns="http://www.w3.org/2000/svg" viewBox="0 0 200 150" width="200" height="150" role="img" aria-label="Bramblehide Stalker"><defs><linearGradient id="sky-rtg-g-004" x1="0" y1="0" x2="0" y2="1"><stop offset="0%" stop-color="#e8f5d8"/><stop offset="100%" stop-color="#8fbf6a"/></linearGradient></defs><rect width="200" height="150" fill="url(#sky-rtg-g-004)"/><circle cx="140" cy="38" r="15" fill="#f6ffe6" opacity="0.9"/><polygon points="0,150 0,82.5 29,73 57,58 86,80 114,56 143,75 171,81 200,51 200,150" fill="#4f8f43"/><polygon points="0,150 0,103.50000000000001 29,90 57,81 86,80 114,90 143,95 171,101 200,95 200,150" fill="#37672f"/><polygon points="0,150 0,124.50000000000001 29,119 57,122 86,114 114,109 143,109 171,118 200,113 200,150" fill="#20401d"/><path d="M91 125 Q96 108 101 123 M99 125 Q104 106 109 122" stroke="#f6ffe6" fill="none" stroke-width="2.5" stroke-linecap="round"/></svg>
