<svg xmlns="http://www.w3.org/2000/svg" viewBox="0 0 200 150" width="200" height="150" role="img" aria-label="Slopefire Rite"><defs><linearGradient id="sky-rtg-rg-002" x1="0" y1="0" x2="0" y2="1"><stop offset="0%" stop-color="#ffe0c2"/><stop offset="100%" stop-color="#e07a3c"/></linearGradient></defs><rect width="200" height="150" fill="url(#sky-rtg-rg-002)"/><circle cx="113" cy="39" r="19" fill="#fff2d8" opacity="0.9"/><polygon points="0,150 0,82.5 29,53 57,72 86,70 114,53 143,73 171,79 200,54 200,150" fill="#4f8f43"/><polygon points="0,150 0,103.50000000000001 29,98 57,88 86,94 114,98 143,96 171,93 200,78 200,150" fill="#37672f"/><polygon points="0,150 0,124.50000000000001 29,120 57,115 86,115 114,119 143,120 171,114 200,121 200,150" fill="#20401d"/><path d="M104 107 L95 118 L101 118 L96 127" stroke="#fff2d8" fill="none" stroke-width="2.5" stroke-linecap="round"/></svg>
