<svg xmlns="http://www.w3.org/2000/svg" viewBox="0 0 200 150" width="200" height="150" role="img" aria-label="Mirefen Hollow"><defs><linearGradient id="sky-rtg-land-swamp" x1="0" y1="0" x2="0" y2="1"><stop offset="0%" stop-color="#cfd6cb"/><stop offset="100%" stop-color="#6b7566"/></linearGradient></defs><rect width="200" height="150" fill="url(#sky-rtg-land-swamp)"/><circle cx="161" cy="43" r="18" fill="#c8ffd0" opacity="0.9"/><polygon points="0,150 0,82.5 29,50 57,64 86,58 114,66 143,59 171,61 200,55 200,150" fill="#44503f"/><polygon points="0,150 0,103.50000000000001 29,84 57,100 86,94 114,99 143,83 171,100 200,89 200,150" fill="#2e372b"/><polygon points="0,150 0,124.50000000000001 29,121 57,108 86,119 114,111 143,120 171,115 200,119 200,150" fill="#1a201a"/></svg>
