<svg xmlns="http://www.w3.org/2000/svg" viewBox="0 0 200 150" width="200" height="150" role="img" aria-label="The Thornwild Remembers"><defs><linearGradient id="sky-rtg-g-009" x1="0" y1="0" x2="0" y2="1"><stop offset="0%" stop-color="#e8f5d8"/><stop offset="100%" stop-color="#8fbf6a"/></linearGradient></defs><rect width="200" height="150" fill="url(#sky-rtg-g-009)"/><circle cx="39" cy="43" r="14" fill="#f6ffe6" opacity="0.9"/><polygon points="0,150 0,82.5 29,63 57,81 86,71 114,82 143,81 171,57 200,80 200,150" fill="#4f8f43"/><polygon points="0,150 0,103.50000000000001 29,101 57,94 86,83 114,79 143,92 171,97 200,88 200,150" fill="#37672f"/><polygon points="0,150 0,124.50000000000001 29,111 57,119 86,117 114,109 143,119 171,119 200,119 200,150" fill="#20401d"/><path d="M100 117 m0,-2 a2,2 0 1,1 -2,2 a5,5 0 1,1 5,5 a8,8 0 1,1 -8,-8" stroke="#f6ffe6" fill="none" stroke-width="2.5" stroke-linecap="round"/></svg>
