<svg xmlns="http://www.w3.org/2000/svg" viewBox="0 0 200 150" width="200" height="150" role="img" aria-label="Elder Warden Oakenmoot"><defs><linearGradient id="sky-rtg-g-006" x1="0" y1="0" x2="0" y2="1"><stop offset="0%" stop-color="#e8f5d8"/><stop offset="100%" stop-color="#8fbf6a"/></linearGradient></defs><rect width="200" height="150" fill="url(#sky-rtg-g-006)"/><circle cx="91" cy="38" r="17" fill="#f6ffe6" opacity="0.9"/><polygon points="0,150 0,82.5 29,61 57,55 86,74 114,57 143,56 171,78 200,70 200,150" fill="#4f8f43"/><polygon points="0,150 0,103.50000000000001 29,87 57,79 86,83 114,100 143,81 171,101 200,86 200,150" fill="#37672f"/><polygon points="0,150 0,124.50000000000001 29,118 57,121 86,121 114,117 143,114 171,116 200,110 200,150" fill="#20401d"/><path d="M91 125 Q96 108 101 123 M99 125 Q104 106 109 122" stroke="#f6ffe6" fill="none" stroke-width="2.5" stroke-linecap="round"/></svg>
