<svg xmlns="http://www.w3.org/2000/svg" viewBox="0 0 200 150" width="200" height="150" role="img" aria-label="Rockslide Charge"><defs><linearGradient id="sky-rtg-r-008" x1="0" y1="0" x2="0" y2="1"><stop offset="0%" stop-color="#ffe0c2"/><stop offset="100%" stop-color="#e07a3c"/></linearGradient></defs><rect width="200" height="150" fill="url(#sky-rtg-r-008)"/><circle cx="65" cy="45" r="18" fill="#fff2d8" opacity="0.9"/><polygon points="0,150 0,82.5 29,71 57,78 86,80 114,78 143,61 171,71 200,73 200,150" fill="#b64a22"/><polygon points="0,150 0,103.50000000000001 29,97 57,82 86,102 114,82 143,95 171,93 200,92 200,150" fill="#8a3216"/><polygon points="0,150 0,124.50000000000001 29,109 57,115 86,111 114,123 143,117 171,113 200,124 200,150" fill="#541c0c"/><path d="M104 107 L95 118 L101 118 L96 127" stroke="#fff2d8" fill="none" stroke-width="2.5" stroke-linecap="round"/></svg>
