<svg xmlns="http://www.w3.org/2000/svg" viewBox="0 0 200 150" width="200" height="150" role="img" aria-label="Tidegrowth Delta"><defs><linearGradient id="sky-rtg-dual-ug" x1="0" y1="0" x2="0" y2="1"><stop offset="0%" stop-color="#dff3f7"/><stop offset="100%" stop-color="#7fb8cf"/></linearGradient></defs><rect width="200" height="150" fill="url(#sky-rtg-dual-ug)"/><circle cx="100" cy="39" r="16" fill="#eafaff" opacity="0.9"/><polygon points="0,150 0,82.5 29,74 57,71 86,57 114,53 143,81 171,77 200,69 200,150" fill="#4f8f43"/><polygon points="0,150 0,103.50000000000001 29,91 57,89 86,93 114,93 143,82 171,82 200,92 200,150" fill="#37672f"/><polygon points="0,150 0,124.50000000000001 29,110 57,117 86,122 114,111 143,111 171,116 200,121 200,150" fill="#20401d"/></svg>
