<svg xmlns="http://www.w3.org/2000/svg" viewBox="0 0 200 150" width="200" height="150" role="img" aria-label="Wildfire Outrider"><defs><linearGradient id="sky-rtg-rg-003" x1="0" y1="0" x2="0" y2="1"><stop offset="0%" stop-color="#ffe0c2"/><stop offset="100%" stop-color="#e07a3c"/></linearGradient></defs><rect width="200" height="150" fill="url(#sky-rtg-rg-003)"/><circle cx="135" cy="51" r="17" fill="#fff2d8" opacity="0.9"/><polygon points="0,150 0,82.5 29,65 57,80 86,74 114,77 143,65 171,56 200,76 200,150" fill="#4f8f43"/><polygon points="0,150 0,103.50000000000001 29,95 57,100 86,85 114,94 143,88 171,82 200,84 200,150" fill="#37672f"/><polygon points="0,150 0,124.50000000000001 29,112 57,107 86,119 114,117 143,107 171,109 200,121 200,150" fill="#20401d"/><path d="M91 125 Q96 108 101 123 M99 125 Q104 106 109 122" stroke="#fff2d8" fill="none" stroke-width="2.5" stroke-linecap="round"/></svg>
