<svg xmlns="http://www.w3.org/2000/svg" viewBox="0 0 200 150" width="200" height="150" role="img" aria-label="Rootmire Grubcaller"><defs><linearGradient id="sky-rtg-bg-001" x1="0" y1="0" x2="0" y2="1"><stop offset="0%" stop-color="#e8f5d8"/><stop offset="100%" stop-color="#8fbf6a"/></linearGradient></defs><rect width="200" height="150" fill="url(#sky-rtg-bg-001)"/><circle cx="126" cy="34" r="18" fill="#f6ffe6" opacity="0.9"/><polygon points="0,150 0,82.5 29,56 57,76 86,75 114,60 143,51 171,69 200,53 200,150" fill="#4f8f43"/><polygon points="0,150 0,103.50000000000001 29,100 57,97 86,85 114,94 143,85 171,100 200,89 200,150" fill="#37672f"/><polygon points="0,150 0,124.50000000000001 29,113 57,123 86,115 114,107 143,110 171,115 200,120 200,150" fill="#20401d"/><path d="M91 125 Q96 108 101 123 M99 125 Q104 106 109 122" stroke="#f6ffe6" fill="none" stroke-width="2.5" stroke-linecap="round"/></svg>
