<svg xmlns="http://www.w3.org/2000/svg" viewBox="0 0 200 150" width="200" height="150" role="img" aria-label="Oathbound Cavalry"><defs><linearGradient id="sky-rtg-w-008" x1="0" y1="0" x2="0" y2="1"><stop offset="0%" stop-color="#fdf6e3"/><stop offset="100%" stop-color="#f3d89b"/></linearGradient></defs><rect width="200" height="150" fill="url(#sky-rtg-w-008)"/><circle cx="140" cy="36" r="21" fill="#fffbe8" opacity="0.9"/><polygon points="0,150 0,82.5 29,55 57,78 86,56 114,64 143,71 171,76 200,50 200,150" fill="#c9a227"/><polygon points="0,150 0,103.50000000000001 29,103 57,80 86,90 114,93 143,83 171,94 200,78 200,150" fill="#9a7b1e"/><polygon points="0,150 0,124.50000000000001 29,112 57,109 86,107 114,120 143,122 171,122 200,121 200,150" fill="#6f5714"/><path d="M91 125 Q96 108 101 123 M99 125 Q104 106 109 122" stroke="#fffbe8" fill="none" stroke-width="2.5" stroke-linecap="round"/></svg>
