<svg xmlns="http://www.w3.org/2000/svg" viewBox="0 0 200 150" width="200" height="150" role="img" aria-label="Colossus of the Delta"><defs><linearGradient id="sky-rtg-ug-005" x1="0" y1="0" x2="0" y2="1"><stop offset="0%" stop-color="#dff3f7"/><stop offset="100%" stop-color="#7fb8cf"/></linearGradient></defs><rect width="200" height="150" fill="url(#sky-rtg-ug-005)"/><circle cx="94" cy="38" r="19" fill="#eafaff" opacity="0.9"/><polygon points="0,150 0,82.5 29,56 57,65 86,70 114,53 143,78 171,82 200,77 200,150" fill="#4f8f43"/><polygon points="0,150 0,103.50000000000001 29,79 57,90 86,96 114,99 143,81 171,102 200,80 200,150" fill="#37672f"/><polygon points="0,150 0,124.50000000000001 29,119 57,117 86,113 114,124 143,122 171,113 200,109 200,150" fill="#20401d"/><path d="M91 125 Q96 108 101 123 M99 125 Q104 106 109 122" stroke="#eafaff" fill="none" stroke-width="2.5" stroke-linecap="round"/></svg>
